# xmcd
# 
# Track frame offsets:
#     150
#     22785
#     44805
#     68355
#     86919
#     107321
#     135457
#     150196
#     175236
# 
# Disc length: 2464
# 
# Revision: 1
# Processed by: cddbd v1.5.2PL0 Copyright (c) Steve Scherf et al.
# Submitted via: fre:ac v1.0.31
# 
DISCID=60099e09
DTITLE=Kinga Głyk - Dream
DYEAR=2017
DGENRE=Jazz
TTITLE0=Freedom
TTITLE1=Difficult Choices
TTITLE2=Dream
TTITLE3=Song for Dad
TTITLE4=Circle
TTITLE5=Walking Baby
TTITLE6=Tears in Heaven
TTITLE7=Teen Town
TTITLE8=Silence
EXTD=YEAR: 2017
EXTT0=
EXTT1=
EXTT2=
EXTT3=
EXTT4=
EXTT5=
EXTT6=
EXTT7=
EXTT8=
PLAYORDER=
